<svg width="160" height="30" fill="none" xmlns="http://www.w3.org/2000/svg"><path d="M4.876 3.295C7.03 1.333 9.955.188 12.919.045c1.015 0 2.033.007 3.047-.002-.051 1.038 0 2.078-.03 3.116a11.143 11.143 0 0 1-2.556 6.406c-1.969 2.447-4.98 4.09-8.175 4.514-1.396.214-2.813.078-4.217.116.024-1.143-.052-2.288.042-3.427.275-2.825 1.673-5.531 3.846-7.473ZM16.906.043c1.088.012 2.176-.006 3.266.006 2.715.183 5.393 1.177 7.438 2.9 2.255 1.846 3.8 4.485 4.195 7.305.174 1.307.064 2.63.132 3.944-.951-.003-1.899-.006-2.85 0-2.336-.061-4.634-.782-6.59-1.997-.902-.616-1.828-1.241-2.504-2.096a11.278 11.278 0 0 1-2.874-5.659c-.286-1.453-.17-2.935-.213-4.403ZM.99 15.029c.966.052 1.935-.044 2.897.058 4.123.084 8.124 2.293 10.26 5.656 1.224 1.883 1.882 4.116 1.797 6.333-.003.727.01 1.45-.012 2.175-1.53-.045-3.074.075-4.589-.207-3.364-.54-6.456-2.45-8.318-5.177a11.192 11.192 0 0 1-2.041-6.795c0-.683 0-1.363.006-2.043ZM26.788 15.337c1.658-.352 3.367-.294 5.052-.294l.074.07c-.037 1.52.088 3.058-.232 4.56-.673 3.372-3.013 6.383-6.161 8.036-1.96 1.041-4.208 1.553-6.447 1.53-.716.003-1.436-.012-2.152.008 0-1.259-.054-2.522.095-3.776.347-3.03 2.066-5.853 4.537-7.76a13.122 13.122 0 0 1 5.234-2.374ZM44.422 23.621c0 .512-.186.945-.557 1.299-.351.335-.795.502-1.33.502-.517 0-.95-.167-1.3-.502a1.776 1.776 0 0 1-.527-1.299V5.377c0-.511.176-.934.526-1.269a1.899 1.899 0 0 1 1.362-.531c.536 0 .97.177 1.3.531.35.335.526.758.526 1.27V23.62ZM59.327 9.628c.537 0 .98.178 1.331.532.35.334.526.757.526 1.27v7.497c0 2.086-.609 3.74-1.826 4.96-1.217 1.22-2.97 1.83-5.261 1.83-2.29 0-4.044-.61-5.26-1.83-1.197-1.22-1.796-2.874-1.796-4.96V11.43c0-.512.176-.935.526-1.27.351-.354.795-.53 1.331-.53.537 0 .98.177 1.33.53.352.335.527.758.527 1.27v7.498c0 1.2.279 2.096.835 2.687.557.57 1.393.856 2.507.856 1.135 0 1.98-.286 2.538-.856.557-.59.836-1.486.836-2.687V11.43c0-.512.175-.935.526-1.27.35-.354.794-.53 1.33-.53ZM72.353 9.333c1.65 0 2.868.384 3.652 1.151.784.748 1.3 1.722 1.547 2.923l-.526-.266.248-.472c.247-.453.629-.935 1.145-1.447a6.622 6.622 0 0 1 1.856-1.328c.743-.374 1.569-.561 2.476-.561 1.486 0 2.61.305 3.373.915.785.61 1.32 1.427 1.61 2.45.289 1.004.433 2.126.433 3.366v7.557c0 .512-.175.944-.526 1.299-.351.334-.794.502-1.33.502-.537 0-.98-.168-1.332-.502a1.776 1.776 0 0 1-.526-1.3v-7.556c0-.65-.082-1.23-.247-1.742a2.409 2.409 0 0 0-.898-1.27c-.433-.314-1.052-.472-1.856-.472-.784 0-1.455.158-2.012.473-.557.314-.98.737-1.269 1.269-.268.512-.402 1.092-.402 1.742v7.557c0 .512-.176.944-.526 1.299-.35.334-.795.502-1.33.502-.537 0-.981-.168-1.331-.502a1.774 1.774 0 0 1-.527-1.3v-7.556c0-.65-.082-1.23-.248-1.742a2.405 2.405 0 0 0-.897-1.27c-.433-.314-1.052-.472-1.857-.472-.784 0-1.454.158-2.011.473-.557.314-.98.737-1.269 1.269-.268.512-.402 1.092-.402 1.742v7.557c0 .512-.175.944-.526 1.299-.351.334-.794.502-1.331.502-.536 0-.98-.168-1.33-.502a1.776 1.776 0 0 1-.527-1.3V11.43c0-.512.176-.935.526-1.27.351-.354.794-.53 1.331-.53.537 0 .98.176 1.33.53.352.335.527.758.527 1.27v1.27l-.465-.09c.186-.334.444-.688.774-1.062.33-.394.733-.758 1.207-1.092.475-.335 1-.6 1.578-.797a5.342 5.342 0 0 1 1.888-.325ZM94.136 23.621c0 .512-.175.945-.527 1.3-.35.334-.793.501-1.33.501-.536 0-.98-.167-1.33-.502a1.778 1.778 0 0 1-.526-1.299V11.43c0-.511.175-.934.525-1.27.35-.353.795-.53 1.331-.53.537 0 .98.177 1.33.53.352.335.527.759.527 1.27v12.192ZM92.248 7.71c-.701 0-1.196-.108-1.486-.325-.288-.216-.432-.6-.432-1.151v-.561c0-.57.155-.955.463-1.151.33-.217.826-.325 1.486-.325.722 0 1.228.108 1.516.325.29.216.434.6.434 1.15v.562c0 .57-.155.964-.465 1.18-.308.197-.814.296-1.516.296ZM105.256 9.333c1.527 0 2.682.305 3.466.915.805.61 1.351 1.427 1.64 2.45.31 1.004.464 2.126.464 3.366v7.557c0 .512-.175.944-.526 1.299-.35.334-.794.502-1.331.502-.536 0-.979-.168-1.33-.502a1.776 1.776 0 0 1-.527-1.3v-7.556c0-.65-.092-1.23-.277-1.742a2.354 2.354 0 0 0-.93-1.27c-.453-.314-1.103-.472-1.949-.472-.825 0-1.527.158-2.104.473-.557.314-.99.737-1.3 1.269-.289.512-.434 1.092-.434 1.742v7.557c0 .512-.174.944-.525 1.299-.35.334-.795.502-1.331.502-.537 0-.98-.168-1.33-.502a1.775 1.775 0 0 1-.527-1.3V11.43c0-.512.175-.935.527-1.27.35-.354.793-.53 1.33-.53.536 0 .98.176 1.33.53.352.335.526.758.526 1.27v1.27l-.463-.09c.186-.334.453-.688.804-1.062a7.252 7.252 0 0 1 1.238-1.092 6.07 6.07 0 0 1 1.609-.797 5.697 5.697 0 0 1 1.95-.325ZM129.2 17.54c0 1.613-.382 3.04-1.145 4.28a7.83 7.83 0 0 1-3.033 2.863c-1.259.69-2.672 1.034-4.24 1.034s-2.992-.345-4.271-1.034a8.12 8.12 0 0 1-3.032-2.863c-.743-1.24-1.114-2.667-1.114-4.28 0-1.614.371-3.031 1.114-4.251a8.045 8.045 0 0 1 3.032-2.893c1.279-.709 2.703-1.063 4.271-1.063s2.981.354 4.24 1.063a7.762 7.762 0 0 1 3.033 2.893c.763 1.22 1.145 2.637 1.145 4.25Zm-3.714 0c0-1.004-.216-1.87-.65-2.598a4.43 4.43 0 0 0-1.702-1.742c-.701-.413-1.485-.62-2.352-.62-.866 0-1.661.207-2.383.62a4.716 4.716 0 0 0-1.702 1.742c-.412.728-.619 1.594-.619 2.598 0 .984.207 1.85.619 2.598.433.728 1 1.298 1.702 1.712.722.413 1.517.62 2.383.62.867 0 1.651-.207 2.352-.62a4.487 4.487 0 0 0 1.702-1.713c.434-.747.65-1.613.65-2.597ZM143.041 9.628c.536 0 .98.178 1.331.532.35.334.526.757.526 1.27v7.497c0 2.086-.609 3.74-1.826 4.96-1.218 1.22-2.971 1.83-5.261 1.83s-4.044-.61-5.261-1.83c-1.197-1.22-1.795-2.874-1.795-4.96V11.43c0-.512.175-.935.526-1.27.351-.354.794-.53 1.331-.53.536 0 .98.177 1.331.53.35.335.526.758.526 1.27v7.498c0 1.2.278 2.096.835 2.687.557.57 1.393.856 2.507.856 1.134 0 1.981-.286 2.537-.856.558-.59.836-1.486.836-2.687V11.43c0-.512.176-.935.526-1.27.351-.354.795-.53 1.331-.53ZM146.411 22.971c-.206-.275-.299-.63-.278-1.062.021-.433.289-.807.805-1.122.33-.197.68-.276 1.052-.236.371.02.732.197 1.083.531a7.293 7.293 0 0 0 1.888 1.328c.66.315 1.485.473 2.475.473.31-.02.65-.06 1.021-.118.372-.079.692-.236.96-.473.288-.255.433-.64.433-1.15 0-.434-.155-.778-.464-1.034-.31-.256-.722-.472-1.238-.65a18.572 18.572 0 0 0-1.671-.501c-.64-.178-1.3-.374-1.981-.59a8.944 8.944 0 0 1-1.826-.827 4.282 4.282 0 0 1-1.361-1.388c-.351-.57-.526-1.289-.526-2.155 0-.984.288-1.82.866-2.509.578-.689 1.321-1.22 2.228-1.594a7.716 7.716 0 0 1 2.909-.561c.64 0 1.31.079 2.012.236a7.387 7.387 0 0 1 2.011.709c.64.314 1.176.738 1.61 1.269.226.295.361.65.402 1.063.041.413-.155.787-.588 1.122a1.6 1.6 0 0 1-1.083.324c-.412-.04-.753-.177-1.021-.413-.351-.433-.825-.777-1.424-1.033-.578-.256-1.248-.384-2.012-.384-.309 0-.649.04-1.021.118-.35.06-.66.207-.928.443-.268.216-.403.57-.403 1.063 0 .452.155.816.465 1.092.309.256.722.472 1.238.65a62.33 62.33 0 0 0 1.702.472c.619.157 1.248.344 1.887.56.64.217 1.228.502 1.764.857.537.354.97.816 1.3 1.387.331.551.495 1.26.495 2.126 0 1.003-.309 1.86-.928 2.568s-1.393 1.25-2.321 1.623a7.926 7.926 0 0 1-2.847.532 11.81 11.81 0 0 1-3.652-.59 6.409 6.409 0 0 1-3.033-2.156Z" fill="#81818B"/></svg>