<svg width="76" height="76" fill="none" xmlns="http://www.w3.org/2000/svg"><path opacity=".06" d="M54.979 0H21.02C9.411 0 0 9.412 0 21.021V54.98C0 66.589 9.412 76 21.021 76H54.98C66.589 76 76 66.588 76 54.979V21.02C76 9.411 66.588 0 54.979 0Z" fill="#F6CA4F"/><path d="M38 63.879C52.292 63.879 63.88 52.293 63.88 38c0-14.292-11.587-25.878-25.879-25.878-14.292 0-25.879 11.586-25.879 25.878 0 14.293 11.587 25.879 25.88 25.879Z" fill="#FF6D35"/><path d="M47.55 49.673h-19.1a4.257 4.257 0 0 1-4.245-4.245V30.572a4.257 4.257 0 0 1 4.245-4.245h19.1a4.257 4.257 0 0 1 4.245 4.245v14.856a4.257 4.257 0 0 1-4.245 4.245Z" stroke="#fff" stroke-width="2" stroke-miterlimit="10" stroke-linecap="round" stroke-linejoin="round"/><path d="M24.205 31.633 38 40.123l13.795-8.49" stroke="#fff" stroke-width="2" stroke-miterlimit="10" stroke-linecap="round" stroke-linejoin="round"/></svg>