<svg width="164" height="35" fill="none" xmlns="http://www.w3.org/2000/svg"><path d="m.174 23.394 11.66-5.053 6.71 3.79L19.9 34.564l-8.27-.066 1.22-8.644-1.423-.798-6.983 5.32-4.27-6.982ZM19.29 21.599l10.305 7.38 4.067-7.114-8.27-3.258V17.01l8.27-3.324-4.067-7.048-10.304 7.38v7.58ZM18.544 13.42 19.9.989l-8.27.133 1.22 8.643-1.423.798-7.05-5.319-4.203 6.915 11.66 5.053 6.71-3.79ZM61.252 16.286v11.648h4.451V13.089h-6.481v3.197h2.03ZM61.113 11.004c.408.415 1.03.623 1.864.623.835 0 1.447-.208 1.836-.623.408-.434.612-.976.612-1.626 0-.668-.204-1.21-.612-1.625-.39-.433-1-.65-1.836-.65-.834 0-1.456.217-1.864.65-.389.415-.584.957-.584 1.625 0 .65.195 1.192.584 1.626ZM45.758 27.609c1.26.56 2.809.84 4.645.84 1.725 0 3.208-.263 4.451-.786 1.243-.523 2.198-1.255 2.865-2.194.687-.957 1.03-2.068 1.03-3.332 0-1.228-.324-2.266-.974-3.115-.63-.867-1.511-1.544-2.642-2.032-1.132-.505-2.44-.821-3.923-.948l-1.558-.135c-.927-.073-1.595-.316-2.003-.732-.408-.415-.612-.903-.612-1.462 0-.434.112-.831.333-1.192.224-.38.557-.678 1.002-.894.464-.217 1.03-.325 1.697-.325.705 0 1.29.126 1.753.38.102.053.199.11.29.17l.022.015.1.071c.282.21.506.458.673.745.24.398.362.84.362 1.328h4.45c0-1.3-.306-2.43-.918-3.386-.611-.976-1.492-1.725-2.642-2.249-1.132-.542-2.495-.813-4.09-.813-1.52 0-2.837.253-3.95.76-1.113.487-1.984 1.191-2.615 2.112-.612.92-.918 2.013-.918 3.278 0 1.751.603 3.16 1.808 4.225 1.206 1.066 2.82 1.68 4.84 1.842l1.531.136c1.242.108 2.142.352 2.699.731.556.361.834.858.834 1.49 0 .29-.05.563-.147.817a2.236 2.236 0 0 1-.298.537c-.298.38-.733.677-1.308.895-.575.216-1.289.324-2.142.324-.946 0-1.715-.126-2.309-.38-.593-.27-1.038-.622-1.336-1.055a2.563 2.563 0 0 1-.416-1.409h-4.424c0 1.282.325 2.42.974 3.413.649.975 1.604 1.752 2.865 2.33ZM75.635 28.123c-1.54 0-2.782-.18-3.728-.542-.946-.378-1.641-1.002-2.087-1.869-.426-.884-.64-2.076-.64-3.575v-5.878h-2.309v-3.17h2.31V9.081h4.144v4.008h4.452v3.17h-4.452v6.04c0 .705.186 1.247.557 1.625.39.362.936.542 1.641.542h2.254v3.657h-2.142Z" fill="#81818B"/><path fill-rule="evenodd" clip-rule="evenodd" d="M83.136 27.798c1.001.434 2.151.65 3.45.65 1.279 0 2.41-.216 3.393-.65.983-.433 1.8-1.038 2.448-1.814a6.191 6.191 0 0 0 1.308-2.655h-4.09c-.185.451-.537.83-1.056 1.137-.52.307-1.188.461-2.004.461-.505 0-.957-.058-1.355-.175a3.063 3.063 0 0 1-.815-.367 3.15 3.15 0 0 1-1.224-1.517 5.16 5.16 0 0 1-.185-.58 5.908 5.908 0 0 1-.128-.639h11.135v-1.463c0-1.354-.297-2.6-.89-3.738a7.015 7.015 0 0 0-2.587-2.79c-1.113-.722-2.486-1.083-4.118-1.083-1.242 0-2.355.216-3.338.65-.964.415-1.771.984-2.42 1.706a7.876 7.876 0 0 0-1.503 2.466c-.333.902-.5 1.85-.5 2.844v.541c0 .958.167 1.897.5 2.818a8.31 8.31 0 0 0 1.503 2.465c.667.722 1.492 1.3 2.476 1.733Zm-.181-8.827a4.632 4.632 0 0 1 .264-.843c.278-.668.687-1.174 1.224-1.517a3.05 3.05 0 0 1 .653-.313 4.073 4.073 0 0 1 1.322-.202c.761 0 1.391.172 1.892.515.52.325.909.803 1.168 1.436a4.56 4.56 0 0 1 .25.82c.023.103.041.209.058.317h-6.874c.013-.072.027-.143.043-.213Z" fill="#81818B"/><path d="M95.85 27.934V13.089h3.533v3.74a7.373 7.373 0 0 1 .333-1.138c.39-1.013.974-1.77 1.753-2.277.779-.523 1.734-.785 2.866-.785h.194c1.15 0 2.105.262 2.866.785.779.506 1.363 1.264 1.752 2.276l.031.076.026.07.054-.146c.408-1.012 1.002-1.77 1.781-2.276.779-.523 1.734-.785 2.866-.785h.194c1.15 0 2.114.262 2.893.785.798.506 1.401 1.264 1.808 2.276.408 1.011.613 2.275.613 3.792v8.452h-4.452v-8.696c0-.812-.222-1.471-.667-1.977-.427-.506-1.039-.759-1.836-.759-.798 0-1.428.262-1.892.786-.463.506-.695 1.183-.695 2.032v8.614h-4.479v-8.696c0-.812-.223-1.471-.668-1.977-.426-.506-1.03-.759-1.808-.759-.817 0-1.456.262-1.92.786-.463.506-.695 1.183-.695 2.032v8.614H95.85Z" fill="#81818B"/><path fill-rule="evenodd" clip-rule="evenodd" d="M131.303 25.074v2.86h3.532v-9.102c0-1.372-.278-2.492-.834-3.359-.557-.885-1.372-1.544-2.448-1.977-1.057-.434-2.365-.65-3.923-.65a53.987 53.987 0 0 0-1.724.027c-.613.018-1.206.045-1.781.081l-.439.029a73.162 73.162 0 0 0-1.063.08v3.656a161.204 161.204 0 0 1 2.506-.136 80.46 80.46 0 0 1 3.086-.08c.815 0 1.409.19 1.78.569.371.379.556.948.556 1.706v.054h-2.754c-1.353 0-2.55.172-3.589.515-1.038.325-1.845.84-2.419 1.544-.576.686-.863 1.571-.863 2.655 0 .993.231 1.85.695 2.573.464.704 1.104 1.246 1.919 1.625.836.38 1.8.57 2.894.57 1.057 0 1.947-.19 2.671-.57a4.108 4.108 0 0 0 1.725-1.625 5.14 5.14 0 0 0 .437-.94l.036-.105Zm-.752-2.639v-1.192h-2.782c-.779 0-1.381.19-1.808.569-.408.361-.612.858-.612 1.49 0 .297.051.568.152.811.103.245.256.462.46.651.427.362 1.029.542 1.808.542a3.571 3.571 0 0 0 .759-.07 3 3 0 0 0 .577-.174c.408-.18.742-.478 1.001-.894.26-.415.409-.993.445-1.733Z" fill="#81818B"/><path d="M137.499 27.934V13.089h3.533v4.9c.169-1.399.596-2.526 1.28-3.383.927-1.137 2.262-1.706 4.006-1.706h.584v3.738h-1.113c-1.223 0-2.169.325-2.837.975-.668.632-1.002 1.553-1.002 2.763v7.558h-4.451ZM152.547 21h1.474l4.813 6.934h5.007l-6.103-8.517 5.018-6.327h-4.673l-5.536 7.058V8.16h-4.451v19.774h4.451V21Z" fill="#81818B"/></svg>