<svg width="163" height="35" fill="none" xmlns="http://www.w3.org/2000/svg"><path fill-rule="evenodd" clip-rule="evenodd" d="M5.962 8.628c2.737-3.502 7.12-5.77 12.061-5.77 4.97 0 9.375 2.295 12.11 5.832a4.18 4.18 0 0 0-.319.35c-.5.617-.878 1.411-1.18 2.218-.607 1.623-1.07 3.743-1.5 5.728l-.038.178c-.429 1.982-.827 3.824-1.308 5.192-.217.615-.422 1.05-.604 1.327-.19-.28-.405-.72-.633-1.343-.514-1.407-.947-3.321-1.406-5.365l-.015-.067c-.442-1.963-.91-4.046-1.493-5.64-.293-.8-.653-1.588-1.123-2.199-.462-.6-1.23-1.276-2.354-1.276-1.117 0-1.89.67-2.357 1.262-.48.607-.854 1.39-1.162 2.192-.62 1.614-1.127 3.724-1.599 5.712l-.048.205c-.468 1.97-.905 3.81-1.4 5.18-.19.524-.368.922-.53 1.207a8.049 8.049 0 0 1-.516-1.198c-.476-1.341-.893-3.13-1.34-5.052l-.078-.337c-.464-1.989-.967-4.103-1.596-5.722-.313-.804-.695-1.591-1.19-2.201a4.134 4.134 0 0 0-.382-.413Zm-1.657 2.69c.13.244.269.548.411.915.545 1.4 1.006 3.313 1.481 5.35l.092.397c.433 1.859.883 3.792 1.413 5.286.281.795.622 1.573 1.06 2.178.413.572 1.156 1.31 2.298 1.31 1.138 0 1.883-.735 2.3-1.304.44-.604.787-1.38 1.074-2.176.551-1.523 1.02-3.502 1.47-5.396l.068-.29c.484-2.038.95-3.954 1.49-5.36.251-.651.485-1.105.69-1.387.193.28.414.726.648 1.366.515 1.407.948 3.321 1.407 5.365l.015.067c.441 1.963.909 4.046 1.492 5.64.294.801.653 1.588 1.124 2.199.461.6 1.23 1.277 2.353 1.277 1.13 0 1.896-.683 2.352-1.289.463-.614.812-1.403 1.093-2.203.541-1.536.971-3.53 1.381-5.426l.059-.276c.441-2.04.865-3.947 1.389-5.344.113-.304.224-.563.33-.78a13.645 13.645 0 0 1 1.247 5.707c0 7.89-6.724 14.286-15.019 14.286s-15.02-6.396-15.02-14.286c0-2.075.466-4.047 1.302-5.826ZM18.023 0C8.07 0 0 7.675 0 17.144c0 9.468 8.07 17.143 18.023 17.143 9.954 0 18.023-7.675 18.023-17.143C36.046 7.675 27.977 0 18.023 0Zm.344 10.602-.01.007.01-.007Zm-.416.002-.01-.007.01.007Zm7.012 13.35s.003-.003.01-.006l-.01.007Zm.437-.01a.08.08 0 0 1 .01.006l-.01-.007Zm-14.648.036.013-.01-.013.01Zm.608-.007a.09.09 0 0 1 .013.01l-.013-.01Z" fill="#81818B"/><path d="m45.998 27.293-4.37-14.22h3.828l2.592 10.235 3.014-10.235h4.28l3.015 10.235 2.622-10.235h3.828l-4.4 14.22h-4.01l-3.195-10.636-3.195 10.636h-4.009ZM70.424 27.637c-1.286 0-2.34-.191-3.165-.573-.823-.402-1.436-.927-1.838-1.577a4.01 4.01 0 0 1-.603-2.15c0-1.32.542-2.39 1.627-3.212 1.085-.821 2.714-1.232 4.884-1.232h3.798v-.344c0-.975-.292-1.692-.875-2.15-.582-.46-1.306-.689-2.17-.689-.784 0-1.467.182-2.05.545-.582.344-.944.86-1.085 1.548H65.18c.101-1.032.463-1.93 1.085-2.695.644-.764 1.468-1.347 2.472-1.749 1.005-.42 2.13-.63 3.376-.63 2.13 0 3.808.506 5.034 1.519s1.839 2.447 1.839 4.3v8.745h-3.286L75.337 25c-.442.764-1.065 1.395-1.868 1.892-.784.497-1.799.745-3.045.745Zm.874-2.867c1.106 0 1.96-.344 2.562-1.032.623-.688 1.015-1.539 1.176-2.552H71.75c-1.024 0-1.757.182-2.2.545-.442.344-.663.774-.663 1.29 0 .555.221.985.663 1.29.443.306 1.025.46 1.748.46ZM85.058 27.293l-5.485-14.22h4.038l3.798 10.751 3.798-10.751h4.039l-5.516 14.22h-4.672ZM103.002 27.637c-1.507 0-2.843-.306-4.01-.917a6.83 6.83 0 0 1-2.742-2.58c-.663-1.11-.994-2.39-.994-3.843 0-1.471.321-2.78.964-3.927a6.963 6.963 0 0 1 2.713-2.667c1.165-.65 2.531-.974 4.099-.974 1.467 0 2.763.305 3.889.917 1.124.612 1.999 1.453 2.622 2.523.643 1.051.965 2.227.965 3.526 0 .21-.011.43-.031.66 0 .23-.01.468-.03.717H99.084c.08 1.108.482 1.978 1.205 2.609.743.63 1.638.946 2.683.946.783 0 1.437-.163 1.959-.488a3.231 3.231 0 0 0 1.206-1.319h3.918a6.704 6.704 0 0 1-1.416 2.466c-.644.726-1.447 1.3-2.412 1.72-.944.42-2.02.631-3.225.631Zm.03-11.927c-.944 0-1.778.258-2.502.774-.723.497-1.185 1.262-1.387 2.294h7.446c-.061-.937-.422-1.682-1.085-2.236-.664-.555-1.487-.832-2.472-.832ZM112.547 27.293V6.65h3.858v20.643h-3.858ZM126.405 27.637c-1.507 0-2.843-.306-4.009-.917a6.837 6.837 0 0 1-2.743-2.58c-.663-1.11-.994-2.39-.994-3.843 0-1.471.322-2.78.964-3.927a6.965 6.965 0 0 1 2.713-2.667c1.166-.65 2.532-.974 4.099-.974 1.467 0 2.763.305 3.889.917 1.125.612 1.999 1.453 2.622 2.523.643 1.051.965 2.227.965 3.526 0 .21-.011.43-.031.66 0 .23-.01.468-.03.717h-11.363c.08 1.108.482 1.978 1.206 2.609.743.63 1.637.946 2.682.946.783 0 1.437-.163 1.959-.488a3.217 3.217 0 0 0 1.206-1.319h3.919a6.706 6.706 0 0 1-1.417 2.466c-.644.726-1.447 1.3-2.412 1.72-.944.42-2.019.631-3.225.631Zm.03-11.927c-.944 0-1.778.258-2.502.774-.723.497-1.185 1.262-1.386 2.294h7.445c-.06-.937-.422-1.682-1.085-2.236-.664-.555-1.487-.832-2.472-.832ZM142.129 27.637c-1.326 0-2.492-.2-3.496-.602-1.006-.42-1.81-.994-2.412-1.72a4.812 4.812 0 0 1-1.085-2.523h3.888c.121.554.443 1.032.965 1.433.542.383 1.235.574 2.079.574.845 0 1.458-.162 1.839-.488.402-.324.603-.697.603-1.118 0-.612-.281-1.023-.844-1.233-.563-.229-1.347-.449-2.351-.659a26.758 26.758 0 0 1-1.959-.487 10.375 10.375 0 0 1-1.839-.717 4.19 4.19 0 0 1-1.326-1.147c-.342-.478-.512-1.06-.512-1.749 0-1.261.522-2.322 1.567-3.182 1.065-.86 2.551-1.29 4.461-1.29 1.768 0 3.175.391 4.219 1.175 1.065.784 1.698 1.864 1.9 3.24h-3.648c-.221-1.051-1.055-1.577-2.501-1.577-.724 0-1.286.134-1.688.401-.382.268-.573.602-.573 1.004 0 .42.291.755.874 1.003.583.249 1.357.478 2.321.688 1.045.23 1.999.488 2.863.774.884.268 1.588.679 2.111 1.233.522.535.783 1.31.783 2.322a3.85 3.85 0 0 1-.723 2.38c-.503.707-1.226 1.262-2.171 1.663-.944.401-2.059.602-3.345.602ZM156.759 27.637c-1.326 0-2.492-.2-3.496-.602-1.005-.42-1.809-.994-2.411-1.72a4.804 4.804 0 0 1-1.085-2.523h3.888c.12.554.442 1.032.964 1.433.543.383 1.236.574 2.08.574.844 0 1.457-.162 1.839-.488.401-.324.603-.697.603-1.118 0-.612-.282-1.023-.845-1.233-.562-.229-1.346-.449-2.351-.659a26.886 26.886 0 0 1-1.959-.487 10.334 10.334 0 0 1-1.838-.717 4.194 4.194 0 0 1-1.327-1.147c-.342-.478-.512-1.06-.512-1.749 0-1.261.523-2.322 1.567-3.182 1.066-.86 2.552-1.29 4.461-1.29 1.768 0 3.175.391 4.22 1.175 1.065.784 1.698 1.864 1.899 3.24h-3.647c-.221-1.051-1.055-1.577-2.502-1.577-.723 0-1.286.134-1.688.401-.382.268-.573.602-.573 1.004 0 .42.292.755.875 1.003.582.249 1.356.478 2.32.688 1.045.23 2 .488 2.864.774.884.268 1.588.679 2.11 1.233.522.535.784 1.31.784 2.322a3.85 3.85 0 0 1-.724 2.38c-.502.707-1.225 1.262-2.17 1.663-.944.401-2.06.602-3.346.602Z" fill="#81818B"/></svg>