<svg width="131" height="131" fill="none" xmlns="http://www.w3.org/2000/svg"><g filter="url('#filter0_d_1_14')" fill="#81818B" fill-opacity=".2"><rect x="4.813" y=".484" width="10" height="10" rx="5"/><rect x="20.813" y=".484" width="10" height="10" rx="5"/><rect x="36.813" y=".484" width="10" height="10" rx="5"/><rect x="52.813" y=".484" width="10" height="10" rx="5"/><rect x="68.813" y=".484" width="10" height="10" rx="5"/><rect x="84.813" y=".484" width="10" height="10" rx="5"/><rect x="100.812" y=".484" width="10" height="10" rx="5"/><rect x="116.812" y=".484" width="10" height="10" rx="5"/><rect x="4.813" y="16.484" width="10" height="10" rx="5"/><rect x="20.813" y="16.484" width="10" height="10" rx="5"/><rect x="36.813" y="16.484" width="10" height="10" rx="5"/><rect x="52.813" y="16.484" width="10" height="10" rx="5"/><rect x="68.813" y="16.484" width="10" height="10" rx="5"/><rect x="84.813" y="16.484" width="10" height="10" rx="5"/><rect x="100.812" y="16.484" width="10" height="10" rx="5"/><rect x="116.812" y="16.484" width="10" height="10" rx="5"/><rect x="4.813" y="32.484" width="10" height="10" rx="5"/><rect x="20.813" y="32.484" width="10" height="10" rx="5"/><rect x="36.813" y="32.484" width="10" height="10" rx="5"/><rect x="52.813" y="32.484" width="10" height="10" rx="5"/><rect x="68.813" y="32.484" width="10" height="10" rx="5"/><rect x="84.813" y="32.484" width="10" height="10" rx="5"/><rect x="100.812" y="32.484" width="10" height="10" rx="5"/><rect x="116.812" y="32.484" width="10" height="10" rx="5"/><rect x="4.813" y="48.484" width="10" height="10" rx="5"/><rect x="20.813" y="48.484" width="10" height="10" rx="5"/><rect x="36.813" y="48.484" width="10" height="10" rx="5"/><rect x="52.813" y="48.484" width="10" height="10" rx="5"/><rect x="68.813" y="48.484" width="10" height="10" rx="5"/><rect x="84.813" y="48.484" width="10" height="10" rx="5"/><rect x="100.812" y="48.484" width="10" height="10" rx="5"/><rect x="116.812" y="48.484" width="10" height="10" rx="5"/><rect x="4.813" y="64.484" width="10" height="10" rx="5"/><rect x="20.813" y="64.484" width="10" height="10" rx="5"/><rect x="36.813" y="64.484" width="10" height="10" rx="5"/><rect x="52.813" y="64.484" width="10" height="10" rx="5"/><rect x="68.813" y="64.484" width="10" height="10" rx="5"/><rect x="84.813" y="64.484" width="10" height="10" rx="5"/><rect x="100.812" y="64.484" width="10" height="10" rx="5"/><rect x="116.812" y="64.484" width="10" height="10" rx="5"/><rect x="4.813" y="80.484" width="10" height="10" rx="5"/><rect x="20.813" y="80.484" width="10" height="10" rx="5"/><rect x="36.813" y="80.484" width="10" height="10" rx="5"/><rect x="52.813" y="80.484" width="10" height="10" rx="5"/><rect x="68.813" y="80.484" width="10" height="10" rx="5"/><rect x="84.813" y="80.484" width="10" height="10" rx="5"/><rect x="100.812" y="80.484" width="10" height="10" rx="5"/><rect x="116.812" y="80.484" width="10" height="10" rx="5"/><rect x="4.813" y="96.484" width="10" height="10" rx="5"/><rect x="20.813" y="96.484" width="10" height="10" rx="5"/><rect x="36.813" y="96.484" width="10" height="10" rx="5"/><rect x="52.813" y="96.484" width="10" height="10" rx="5"/><rect x="68.813" y="96.484" width="10" height="10" rx="5"/><rect x="84.813" y="96.484" width="10" height="10" rx="5"/><rect x="100.812" y="96.484" width="10" height="10" rx="5"/><rect x="116.812" y="96.484" width="10" height="10" rx="5"/><rect x="4.813" y="112.484" width="10" height="10" rx="5"/><rect x="20.813" y="112.484" width="10" height="10" rx="5"/><rect x="36.813" y="112.484" width="10" height="10" rx="5"/><rect x="52.813" y="112.484" width="10" height="10" rx="5"/><rect x="68.813" y="112.484" width="10" height="10" rx="5"/><rect x="84.813" y="112.484" width="10" height="10" rx="5"/><rect x="100.812" y="112.484" width="10" height="10" rx="5"/><rect x="116.812" y="112.484" width="10" height="10" rx="5"/></g><defs><filter id="filter0_d_1_14" x=".813" y=".484" width="130" height="130" filterUnits="userSpaceOnUse" color-interpolation-filters="sRGB"><feFlood flood-opacity="0" result="BackgroundImageFix"/><feColorMatrix in="SourceAlpha" values="0 0 0 0 0 0 0 0 0 0 0 0 0 0 0 0 0 0 127 0" result="hardAlpha"/><feOffset dy="4"/><feGaussianBlur stdDeviation="2"/><feComposite in2="hardAlpha" operator="out"/><feColorMatrix values="0 0 0 0 0 0 0 0 0 0 0 0 0 0 0 0 0 0 0.25 0"/><feBlend in2="BackgroundImageFix" result="effect1_dropShadow_1_14"/><feBlend in="SourceGraphic" in2="effect1_dropShadow_1_14" result="shape"/></filter></defs></svg>