<svg width="160" height="30" viewBox="0 0 160 30" fill="none" xmlns="http://www.w3.org/2000/svg">
<path d="M4.87552 3.29534C7.0297 1.33347 9.95479 0.188341 12.9194 0.0459087C13.9341 0.0459087 14.9517 0.0516838 15.9664 0.0429688C15.9146 1.08063 15.9664 2.12113 15.9359 3.15874C15.7927 5.47814 14.8938 7.74519 13.3795 9.56463C11.4112 12.012 8.40084 13.6541 5.20459 14.0785C3.80908 14.2935 2.39221 14.1569 0.987629 14.1947C1.01199 13.0524 0.935811 11.9073 1.03026 10.7679C1.30452 7.94285 2.70307 5.2369 4.87552 3.29534Z" fill="#81818B"/>
<path d="M16.906 0.0429688C17.9938 0.0546238 19.0816 0.0371942 20.1723 0.0487967C22.8872 0.231864 25.5655 1.2259 27.6098 2.94953C29.8645 4.79511 31.4095 7.43423 31.8054 10.2535C31.9792 11.5614 31.8694 12.8838 31.9366 14.1976C30.9859 14.1947 30.0382 14.1918 29.0875 14.1976C26.7507 14.1366 24.4533 13.4158 22.4971 12.2009C21.5953 11.5847 20.669 10.9598 19.9926 10.1053C18.5087 8.52414 17.5002 6.53901 17.1193 4.44635C16.8329 2.99305 16.9487 1.51076 16.906 0.0429688Z" fill="#81818B"/>
<path d="M0.989776 15.0288C1.95567 15.0811 2.92461 14.9852 3.88741 15.0869C8.00992 15.1712 12.0106 17.3801 14.1464 20.743C15.3714 22.6263 16.0295 24.8587 15.9442 27.076C15.9411 27.8032 15.9533 28.5267 15.932 29.2506C14.4024 29.2065 12.8576 29.3257 11.3432 29.0438C7.97947 28.5036 4.88685 26.5937 3.0251 23.8674C1.61437 21.8852 0.910553 19.4641 0.983686 17.0721C0.983686 16.389 0.983686 15.7089 0.989776 15.0288Z" fill="#81818B"/>
<path d="M26.7883 15.3368C28.4459 14.985 30.1548 15.0431 31.8401 15.0431L31.9136 15.113C31.8768 16.633 32.0018 18.1706 31.682 19.6732C31.0085 23.0448 28.6685 26.0557 25.5209 27.7094C23.5617 28.7503 21.3131 29.2617 19.0736 29.2386C18.3575 29.2417 17.6384 29.227 16.9224 29.247C16.9224 27.9885 16.8676 26.7246 17.0169 25.4715C17.3642 22.4402 19.0827 19.618 21.5538 17.7113C23.0833 16.5604 24.881 15.7262 26.7883 15.3368Z" fill="#81818B"/>
<path d="M44.4217 23.621C44.4217 24.1327 44.2358 24.5655 43.8652 24.9199C43.514 25.2546 43.0704 25.4219 42.5343 25.4219C42.0183 25.4219 41.5851 25.2546 41.2344 24.9199C40.8837 24.5655 40.7084 24.1327 40.7084 23.621V5.37741C40.7084 4.86569 40.8837 4.44259 41.2344 4.10806C41.6056 3.75379 42.0597 3.57666 42.5963 3.57666C43.1323 3.57666 43.5654 3.75379 43.8956 4.10806C44.2463 4.44259 44.4217 4.86569 44.4217 5.37741V23.621Z" fill="#81818B"/>
<path d="M59.3274 9.62842C59.8635 9.62842 60.3071 9.8055 60.6583 10.1598C61.0085 10.4943 61.1838 10.9174 61.1838 11.4291V18.9273C61.1838 21.0134 60.5754 22.6665 59.3584 23.8867C58.1409 25.1069 56.3874 25.7168 54.0969 25.7168C51.8073 25.7168 50.0533 25.1069 48.8364 23.8867C47.6399 22.6665 47.0414 21.0134 47.0414 18.9273V11.4291C47.0414 10.9174 47.2167 10.4943 47.5674 10.1598C47.9181 9.8055 48.3618 9.62842 48.8983 9.62842C49.4349 9.62842 49.878 9.8055 50.2287 10.1598C50.5799 10.4943 50.7552 10.9174 50.7552 11.4291V18.9273C50.7552 20.1278 51.034 21.0232 51.5905 21.6136C52.1475 22.1844 52.9833 22.4697 54.0969 22.4697C55.2324 22.4697 56.0777 22.1844 56.6352 21.6136C57.1917 21.0232 57.4705 20.1278 57.4705 18.9273V11.4291C57.4705 10.9174 57.6459 10.4943 57.9966 10.1598C58.3473 9.8055 58.7909 9.62842 59.3274 9.62842Z" fill="#81818B"/>
<path d="M72.3532 9.33301C74.0038 9.33301 75.2208 9.71673 76.0051 10.4843C76.7889 11.2321 77.305 12.2063 77.5523 13.4068L77.0262 13.1411L77.274 12.6688C77.5213 12.2161 77.903 11.734 78.4191 11.2223C78.9346 10.6909 79.5536 10.2481 80.2755 9.89386C81.0183 9.51991 81.8436 9.33301 82.7514 9.33301C84.2371 9.33301 85.3611 9.63803 86.1245 10.2481C86.9088 10.8582 87.4449 11.6749 87.7336 12.6983C88.0229 13.702 88.1673 14.8238 88.1673 16.0636V23.6208C88.1673 24.1325 87.9919 24.5654 87.6407 24.9197C87.29 25.2544 86.8469 25.4217 86.3103 25.4217C85.7743 25.4217 85.3302 25.2544 84.9795 24.9197C84.6288 24.5654 84.4534 24.1325 84.4534 23.6208V16.0636C84.4534 15.4141 84.371 14.8336 84.2061 14.3219C84.0408 13.7905 83.7415 13.3674 83.3084 13.0525C82.8753 12.7376 82.2563 12.5802 81.452 12.5802C80.6676 12.5802 79.9972 12.7376 79.4402 13.0525C78.8826 13.3674 78.46 13.7905 78.1713 14.3219C77.903 14.8336 77.7686 15.4141 77.7686 16.0636V23.6208C77.7686 24.1325 77.5932 24.5654 77.2431 24.9197C76.8924 25.2544 76.4482 25.4217 75.9122 25.4217C75.3756 25.4217 74.932 25.2544 74.5818 24.9197C74.2306 24.5654 74.0553 24.1325 74.0553 23.6208V16.0636C74.0553 15.4141 73.9728 14.8336 73.8075 14.3219C73.6426 13.7905 73.3434 13.3674 72.9102 13.0525C72.4771 12.7376 71.8576 12.5802 71.0533 12.5802C70.2695 12.5802 69.5991 12.7376 69.0415 13.0525C68.485 13.3674 68.0619 13.7905 67.7731 14.3219C67.5048 14.8336 67.371 15.4141 67.371 16.0636V23.6208C67.371 24.1325 67.1956 24.5654 66.8449 24.9197C66.4937 25.2544 66.0506 25.4217 65.514 25.4217C64.9775 25.4217 64.5344 25.2544 64.1832 24.9197C63.8325 24.5654 63.6571 24.1325 63.6571 23.6208V11.4289C63.6571 10.9172 63.8325 10.4941 64.1832 10.1596C64.5344 9.8053 64.9775 9.62822 65.514 9.62822C66.0506 9.62822 66.4937 9.8053 66.8449 10.1596C67.1956 10.4941 67.371 10.9172 67.371 11.4289V12.6983L66.9063 12.6097C67.0922 12.2752 67.3505 11.9209 67.6802 11.547C68.0104 11.1534 68.4126 10.7893 68.8872 10.4547C69.3618 10.1202 69.8878 9.85449 70.4653 9.65767C71.0433 9.44121 71.6728 9.33301 72.3532 9.33301Z" fill="#81818B"/>
<path d="M94.136 23.6212C94.136 24.1329 93.9606 24.5657 93.6094 24.9201C93.2592 25.2548 92.8156 25.4221 92.279 25.4221C91.743 25.4221 91.2989 25.2548 90.9482 24.9201C90.598 24.5657 90.4226 24.1329 90.4226 23.6212V11.4293C90.4226 10.9176 90.598 10.4945 90.9482 10.1599C91.2989 9.80567 91.743 9.62859 92.279 9.62859C92.8156 9.62859 93.2592 9.80567 93.6094 10.1599C93.9606 10.4945 94.136 10.9176 94.136 11.4293V23.6212ZM92.2481 7.70971C91.5467 7.70971 91.0516 7.60151 90.7623 7.385C90.4741 7.16854 90.3297 6.78476 90.3297 6.23372V5.67282C90.3297 5.10214 90.4846 4.71831 90.7933 4.52154C91.1235 4.30503 91.6191 4.19678 92.279 4.19678C93.0014 4.19678 93.507 4.30503 93.7952 4.52154C94.0845 4.738 94.2289 5.12178 94.2289 5.67282V6.23372C94.2289 6.80445 94.074 7.19804 93.7643 7.4145C93.4556 7.61132 92.9495 7.70971 92.2481 7.70971Z" fill="#81818B"/>
<path d="M105.256 9.33301C106.783 9.33301 107.938 9.63803 108.722 10.2481C109.527 10.8582 110.073 11.6749 110.362 12.6983C110.672 13.702 110.826 14.8238 110.826 16.0636V23.6208C110.826 24.1325 110.651 24.5654 110.3 24.9197C109.95 25.2544 109.506 25.4217 108.969 25.4217C108.433 25.4217 107.99 25.2544 107.639 24.9197C107.288 24.5654 107.112 24.1325 107.112 23.6208V16.0636C107.112 15.4141 107.02 14.8336 106.835 14.3219C106.669 13.7905 106.36 13.3674 105.905 13.0525C105.452 12.7376 104.802 12.5802 103.956 12.5802C103.131 12.5802 102.429 12.7376 101.852 13.0525C101.295 13.3674 100.862 13.7905 100.552 14.3219C100.263 14.8336 100.118 15.4141 100.118 16.0636V23.6208C100.118 24.1325 99.9435 24.5654 99.5928 24.9197C99.2421 25.2544 98.798 25.4217 98.262 25.4217C97.7254 25.4217 97.2818 25.2544 96.9316 24.9197C96.5804 24.5654 96.405 24.1325 96.405 23.6208V11.4289C96.405 10.9172 96.5804 10.4941 96.9316 10.1596C97.2818 9.8053 97.7254 9.62822 98.262 9.62822C98.798 9.62822 99.2421 9.8053 99.5928 10.1596C99.9435 10.4941 100.118 10.9172 100.118 11.4289V12.6983L99.6548 12.6097C99.8406 12.2752 100.108 11.9209 100.459 11.547C100.81 11.1534 101.223 10.7893 101.697 10.4547C102.172 10.1202 102.708 9.85449 103.306 9.65767C103.905 9.44121 104.555 9.33301 105.256 9.33301Z" fill="#81818B"/>
<path d="M129.2 17.5396C129.2 19.1534 128.818 20.5802 128.055 21.8201C127.312 23.0403 126.301 23.9947 125.022 24.6835C123.763 25.3725 122.35 25.7166 120.782 25.7166C119.214 25.7166 117.79 25.3725 116.511 24.6835C115.253 23.9947 114.242 23.0403 113.479 21.8201C112.736 20.5802 112.365 19.1534 112.365 17.5396C112.365 15.9259 112.736 14.5089 113.479 13.2887C114.242 12.0488 115.253 11.0845 116.511 10.3957C117.79 9.68723 119.214 9.33301 120.782 9.33301C122.35 9.33301 123.763 9.68723 125.022 10.3957C126.301 11.0845 127.312 12.0488 128.055 13.2887C128.818 14.5089 129.2 15.9259 129.2 17.5396ZM125.486 17.5396C125.486 16.536 125.27 15.67 124.836 14.9418C124.423 14.194 123.856 13.6134 123.134 13.2002C122.433 12.7869 121.649 12.5802 120.782 12.5802C119.916 12.5802 119.121 12.7869 118.399 13.2002C117.697 13.6134 117.13 14.194 116.697 14.9418C116.285 15.67 116.078 16.536 116.078 17.5396C116.078 18.5237 116.285 19.3895 116.697 20.1375C117.13 20.8656 117.697 21.4363 118.399 21.8496C119.121 22.2629 119.916 22.4695 120.782 22.4695C121.649 22.4695 122.433 22.2629 123.134 21.8496C123.856 21.4363 124.423 20.8656 124.836 20.1375C125.27 19.3895 125.486 18.5237 125.486 17.5396Z" fill="#81818B"/>
<path d="M143.041 9.62842C143.577 9.62842 144.021 9.8055 144.372 10.1598C144.722 10.4943 144.898 10.9174 144.898 11.4291V18.9273C144.898 21.0134 144.289 22.6665 143.072 23.8867C141.854 25.1069 140.101 25.7168 137.811 25.7168C135.521 25.7168 133.767 25.1069 132.55 23.8867C131.353 22.6665 130.755 21.0134 130.755 18.9273V11.4291C130.755 10.9174 130.93 10.4943 131.281 10.1598C131.632 9.8055 132.075 9.62842 132.612 9.62842C133.148 9.62842 133.592 9.8055 133.943 10.1598C134.293 10.4943 134.469 10.9174 134.469 11.4291V18.9273C134.469 20.1278 134.747 21.0232 135.304 21.6136C135.861 22.1844 136.697 22.4697 137.811 22.4697C138.945 22.4697 139.792 22.1844 140.348 21.6136C140.906 21.0232 141.184 20.1278 141.184 18.9273V11.4291C141.184 10.9174 141.36 10.4943 141.71 10.1598C142.061 9.8055 142.505 9.62842 143.041 9.62842Z" fill="#81818B"/>
<path d="M146.411 22.9714C146.205 22.6959 146.112 22.3416 146.133 21.9086C146.154 21.4757 146.422 21.1018 146.938 20.7869C147.268 20.5901 147.618 20.5114 147.99 20.5507C148.361 20.5704 148.722 20.7475 149.073 21.0821C149.672 21.6528 150.3 22.0956 150.961 22.4105C151.621 22.7253 152.446 22.8828 153.436 22.8828C153.746 22.8631 154.086 22.8238 154.457 22.7647C154.829 22.686 155.149 22.5286 155.417 22.2924C155.705 22.0366 155.85 21.6528 155.85 21.1411C155.85 20.7082 155.695 20.3637 155.386 20.1079C155.076 19.8521 154.664 19.6356 154.148 19.4585C153.653 19.2813 153.096 19.1141 152.477 18.9566C151.837 18.7795 151.177 18.5827 150.496 18.3662C149.836 18.1498 149.227 17.8742 148.67 17.5396C148.114 17.1854 147.66 16.7229 147.309 16.1522C146.958 15.5815 146.783 14.8631 146.783 13.9972C146.783 13.0132 147.071 12.1768 147.649 11.488C148.227 10.7992 148.97 10.2678 149.877 9.89386C150.806 9.51991 151.775 9.33301 152.786 9.33301C153.426 9.33301 154.096 9.4117 154.798 9.56915C155.499 9.70691 156.17 9.94306 156.809 10.2776C157.449 10.5925 157.985 11.0156 158.419 11.547C158.645 11.8422 158.78 12.1964 158.821 12.6097C158.862 13.023 158.666 13.3969 158.233 13.7315C157.924 13.9677 157.563 14.0759 157.15 14.0562C156.738 14.0169 156.397 13.8791 156.129 13.643C155.778 13.21 155.304 12.8656 154.705 12.6097C154.127 12.3539 153.457 12.226 152.693 12.226C152.384 12.226 152.044 12.2653 151.672 12.344C151.322 12.4031 151.012 12.5507 150.744 12.7869C150.476 13.0033 150.341 13.3576 150.341 13.8496C150.341 14.3022 150.496 14.6663 150.806 14.9418C151.115 15.1977 151.528 15.4141 152.044 15.5913C152.58 15.7488 153.148 15.9062 153.746 16.0636C154.365 16.2211 154.994 16.408 155.633 16.6245C156.273 16.841 156.861 17.1263 157.397 17.4806C157.934 17.8349 158.367 18.2973 158.697 18.8681C159.028 19.4191 159.192 20.1276 159.192 20.9935C159.192 21.9972 158.883 22.8533 158.264 23.5618C157.645 24.2703 156.871 24.8114 155.943 25.1855C155.014 25.5399 154.065 25.7166 153.096 25.7166C151.879 25.7166 150.662 25.5202 149.444 25.1264C148.227 24.713 147.216 23.9947 146.411 22.9714Z" fill="#81818B"/>
</svg>
