<svg width="168" height="39" viewBox="0 0 168 39" fill="none" xmlns="http://www.w3.org/2000/svg">
<path d="M50.2481 10.8003C51.8357 10.8003 53.2096 11.0558 54.3704 11.5669C55.548 12.0779 56.452 12.8033 57.0836 13.7431C57.7152 14.6828 58.0312 15.7956 58.0312 17.0815C58.0312 18.3509 57.7152 19.4637 57.0836 20.4199C56.452 21.3596 55.548 22.085 54.3704 22.5963C53.2096 23.0906 51.8357 23.338 50.2481 23.338H46.6387V28.1108H42.4918V10.8003H50.2481ZM50.0182 20.0737C51.2635 20.0737 52.2111 19.8182 52.8595 19.3071C53.5084 18.7795 53.8323 18.0377 53.8323 17.0815C53.8323 16.1088 53.5084 15.3669 52.8595 14.8559C52.2111 14.3283 51.2635 14.0645 50.0182 14.0645H46.6387V20.0737H50.0182Z" fill="#81818B"/>
<path d="M63.245 16.5625C63.7222 15.9195 64.3627 15.4331 65.1644 15.1034C65.9839 14.7737 66.9221 14.6089 67.9805 14.6089V18.1699C67.5369 18.1369 67.2382 18.1204 67.0843 18.1204C65.9409 18.1204 65.0452 18.4337 64.3969 19.0601C63.748 19.67 63.4235 20.5933 63.4235 21.8297V28.1111H59.4304V14.8067H63.245V16.5625Z" fill="#81818B"/>
<path d="M75.5038 28.3086C74.0532 28.3086 72.7475 28.0204 71.5873 27.4432C70.4438 26.8499 69.5477 26.0335 68.8993 24.9949C68.2509 23.9564 67.9265 22.7776 67.9265 21.4588C67.9265 20.1399 68.2509 18.9612 68.8993 17.9225C69.5477 16.8839 70.4438 16.0762 71.5873 15.4991C72.7475 14.9056 74.0532 14.6089 75.5038 14.6089C76.9544 14.6089 78.2516 14.9056 79.3951 15.4991C80.5385 16.0762 81.4347 16.8839 82.0836 17.9225C82.7315 18.9612 83.0559 20.1399 83.0559 21.4588C83.0559 22.7776 82.7315 23.9564 82.0836 24.9949C81.4347 26.0335 80.5385 26.8499 79.3951 27.4432C78.2516 28.0204 76.9544 28.3086 75.5038 28.3086ZM75.5038 25.1433C76.5281 25.1433 77.3644 24.8139 78.0128 24.1542C78.6785 23.4784 79.0108 22.5801 79.0108 21.4588C79.0108 20.3378 78.6785 19.4475 78.0128 18.788C77.3644 18.1121 76.5281 17.7742 75.5038 17.7742C74.48 17.7742 73.6353 18.1121 72.9696 18.788C72.3039 19.4475 71.971 20.3378 71.971 21.4588C71.971 22.5801 72.3039 23.4784 72.9696 24.1542C73.6353 24.8139 74.48 25.1433 75.5038 25.1433Z" fill="#81818B"/>
<path d="M101.163 10.8003V28.1108H97.758L88.823 17.6008V28.1108H84.727V10.8003H88.1573L97.0666 21.3102V10.8003H101.163Z" fill="#81818B"/>
<path d="M109.396 14.6089C111.529 14.6089 113.168 15.1034 114.311 16.0926C115.455 17.0653 116.026 18.5408 116.026 20.5191V28.1111H112.289V26.454C111.538 27.6906 110.139 28.3086 108.091 28.3086C107.032 28.3086 106.11 28.1358 105.325 27.7895C104.558 27.4432 103.969 26.9653 103.559 26.3551C103.15 25.7453 102.944 25.0527 102.944 24.2779C102.944 23.0414 103.423 22.0688 104.378 21.3599C105.351 20.651 106.845 20.2966 108.859 20.2966H112.033C112.033 19.4557 111.769 18.8128 111.239 18.3677C110.71 17.906 109.916 17.6753 108.859 17.6753C108.125 17.6753 107.399 17.7907 106.682 18.0215C105.983 18.2358 105.385 18.5326 104.89 18.9117L103.457 16.2162C104.208 15.7052 105.103 15.3096 106.144 15.0293C107.203 14.749 108.287 14.6089 109.396 14.6089ZM109.089 25.7123C109.772 25.7123 110.377 25.5639 110.906 25.2671C111.435 24.9537 111.811 24.5006 112.033 23.9068V22.5471H109.294C107.655 22.5471 106.836 23.0662 106.836 24.1048C106.836 24.5995 107.032 24.9949 107.425 25.2918C107.834 25.5721 108.389 25.7123 109.089 25.7123Z" fill="#81818B"/>
<path d="M127.244 27.4678C126.852 27.7481 126.365 27.9625 125.785 28.1109C125.222 28.2425 124.624 28.3084 123.993 28.3084C122.355 28.3084 121.083 27.9048 120.179 27.0971C119.291 26.289 118.847 25.102 118.847 23.536V18.0708H116.723V15.1033H118.847V11.8638H122.841V15.1033H126.271V18.0708H122.841V23.4865C122.841 24.0469 122.986 24.4839 123.276 24.7972C123.583 25.0937 124.01 25.2421 124.556 25.2421C125.188 25.2421 125.725 25.0772 126.169 24.7478L127.244 27.4678Z" fill="#81818B"/>
<path d="M142.082 14.8066V28.111H138.293V26.5282C137.764 27.105 137.132 27.5503 136.398 27.8637C135.664 28.1605 134.871 28.3085 134.017 28.3085C132.208 28.3085 130.775 27.806 129.716 26.8003C128.658 25.7947 128.129 24.3026 128.129 22.3244V14.8066H132.123V21.7554C132.123 23.8985 133.053 24.9701 134.913 24.9701C135.869 24.9701 136.637 24.6737 137.218 24.0799C137.797 23.4701 138.087 22.5718 138.087 21.3846V14.8066H142.082Z" fill="#81818B"/>
<path d="M148.316 16.5625C148.793 15.9195 149.434 15.4331 150.235 15.1034C151.054 14.7737 151.994 14.6089 153.052 14.6089V18.1699C152.608 18.1369 152.309 18.1204 152.156 18.1204C151.012 18.1204 150.116 18.4337 149.468 19.0601C148.819 19.67 148.495 20.5933 148.495 21.8297V28.1111H144.501V14.8067H148.316V16.5625Z" fill="#81818B"/>
<path d="M167.513 21.5085C167.513 21.5575 167.487 21.9039 167.436 22.5471H157.017C157.204 23.3713 157.648 24.0223 158.348 24.5006C159.048 24.9784 159.918 25.2176 160.959 25.2176C161.676 25.2176 162.307 25.1186 162.853 24.9207C163.417 24.7067 163.937 24.3769 164.415 23.9316L166.54 26.1572C165.243 27.5916 163.348 28.3086 160.856 28.3086C159.304 28.3086 157.93 28.0204 156.735 27.4432C155.54 26.8499 154.619 26.0335 153.97 24.9949C153.321 23.9564 152.997 22.7776 152.997 21.4588C152.997 20.1564 153.313 18.9859 153.945 17.9473C154.593 16.8922 155.472 16.0762 156.581 15.4991C157.708 14.9056 158.962 14.6089 160.345 14.6089C161.693 14.6089 162.913 14.8891 164.006 15.4496C165.098 16.0102 165.951 16.818 166.566 17.8731C167.197 18.9117 167.513 20.1234 167.513 21.5085ZM160.37 17.5269C159.466 17.5269 158.706 17.7742 158.092 18.2688C157.477 18.7634 157.102 19.4393 156.965 20.2966H163.749C163.613 19.4557 163.237 18.788 162.623 18.2935C162.009 17.7824 161.258 17.5269 160.37 17.5269Z" fill="#81818B"/>
<path fill-rule="evenodd" clip-rule="evenodd" d="M19.748 1.16031C19.1395 0.820263 18.3892 0.820263 17.7807 1.16031C13.4587 3.57536 10.5437 8.09398 10.5437 13.2726C10.5437 14.0106 10.6029 14.7353 10.717 15.4424C7.74173 14.4664 4.52022 14.8215 1.88892 16.2861C1.27987 16.6252 0.904705 17.2528 0.905335 17.9318C0.908433 21.5142 2.83497 25.0057 6.28527 26.9298C7.97798 27.874 9.82551 28.3226 11.6479 28.3234C11.3706 29.0825 11.2197 29.8989 11.2197 30.7494C11.2197 34.7744 14.5975 38.0367 18.764 38.0367C22.9308 38.0367 26.3083 34.7744 26.3083 30.7494C26.3083 29.8968 26.1568 29.0788 25.8785 28.3185C27.5922 28.2661 29.3183 27.8167 30.9078 26.9298C34.3585 25.0057 36.2847 21.5142 36.2873 17.932C36.2884 17.2529 35.913 16.6253 35.304 16.2863C32.7767 14.8793 29.7042 14.4962 26.829 15.3334C26.9319 14.6609 26.9848 13.9728 26.9848 13.2726C26.9848 8.09398 24.07 3.57536 19.748 1.16031ZM14.4724 13.2726C14.4724 9.90975 16.158 6.92544 18.7643 5.06783C21.3707 6.92544 23.0563 9.90975 23.0563 13.2726C23.0563 16.6354 21.3707 19.6197 18.7643 21.4772C16.158 19.6197 14.4724 16.6354 14.4724 13.2726ZM26.5115 19.5745C28.3255 18.5627 30.4217 18.4451 32.2527 19.0852C31.9115 20.9371 30.7576 22.6316 28.9435 23.6434C27.1295 24.6552 25.0334 24.7727 23.2023 24.1328C23.5438 22.2807 24.6974 20.5862 26.5115 19.5745ZM4.94043 19.0851C6.77142 18.4449 8.86754 18.5626 10.6816 19.5744C12.4957 20.586 13.6492 22.2807 13.9909 24.1324C12.1598 24.7727 10.0637 24.6552 8.24961 23.6434C6.43558 22.6316 5.282 20.937 4.94043 19.0851ZM15.1485 30.7494C15.1485 28.8207 16.7672 27.2568 18.764 27.2568C20.7609 27.2568 22.3798 28.8207 22.3798 30.7494C22.3798 32.6782 20.7609 34.242 18.764 34.242C16.7672 34.242 15.1485 32.6782 15.1485 30.7494Z" fill="#81818B"/>
</svg>
