<svg width="164" height="32" viewBox="0 0 164 32" fill="none" xmlns="http://www.w3.org/2000/svg">
<path d="M52.8865 27.8315C50.5297 27.8315 48.4465 27.3566 46.6369 26.4078C44.8267 25.437 43.4275 24.0672 42.4384 22.2988C41.4499 20.53 40.9553 18.4486 40.9553 16.0544C40.9553 13.6601 41.4499 11.5787 42.4384 9.81006C43.4275 8.01976 44.8267 6.65014 46.6369 5.70105C48.4465 4.73043 50.5297 4.24512 52.8865 4.24512C54.4861 4.24512 55.8958 4.41768 57.1164 4.76277C58.358 5.08632 59.4941 5.60398 60.5252 6.31577V11.0071C59.5996 10.2306 58.537 9.66984 57.3374 9.3247C56.1588 8.95804 54.8122 8.77471 53.297 8.77471C51.8874 8.77471 50.6137 9.07669 49.4776 9.6806C48.3625 10.263 47.4784 11.1042 46.8264 12.2042C46.1738 13.3043 45.8478 14.5876 45.8478 16.0544C45.8478 17.5427 46.1423 18.8476 46.7314 19.9692C47.3419 21.0693 48.194 21.9213 49.2881 22.5252C50.3822 23.1292 51.6454 23.4311 53.076 23.4311C54.3806 23.4311 55.5167 23.1939 56.4848 22.7193V18.3515H52.918V14.7278H61.1248V25.6312C59.0416 27.0979 56.2958 27.8315 52.8865 27.8315Z" fill="#81818B"/>
<path d="M62.2331 11.8163H66.8415V14.0487C67.4521 13.2938 68.3042 12.7221 69.3983 12.334C70.4924 11.9241 71.7345 11.7192 73.1231 11.7192V15.44C71.671 15.44 70.3874 15.6664 69.2723 16.1194C68.1776 16.5723 67.4201 17.2626 66.9995 18.19V27.3464H62.2331V11.8163Z" fill="#81818B"/>
<path d="M82.2828 27.8314C79.3785 27.8314 77.0953 27.1193 75.4331 25.6956C73.7705 24.2509 72.9394 22.2339 72.9394 19.6456C72.9394 17.0788 73.676 15.0513 75.1491 13.563C76.6433 12.0747 78.7685 11.3306 81.5252 11.3306C83.3349 11.3306 84.8705 11.6757 86.1337 12.3659C87.3958 13.0561 88.3539 14.0159 89.006 15.2454C89.6585 16.4533 89.9846 17.823 89.9846 19.3544V21.328H77.4848C77.8214 23.3124 79.631 24.3048 82.9139 24.3048C83.882 24.3048 84.8816 24.2184 85.9127 24.0456C86.9438 23.8732 87.8384 23.6359 88.5959 23.334V26.7637C87.8594 27.0868 86.9123 27.346 85.7546 27.5402C84.5975 27.734 83.4399 27.8314 82.2828 27.8314ZM85.4706 18.1573C85.4076 17.1219 85.0286 16.3239 84.3345 15.7631C83.6399 15.1807 82.6823 14.8895 81.4617 14.8895C80.2626 14.8895 79.3155 15.1807 78.6209 15.7631C77.9269 16.3455 77.5478 17.1435 77.4848 18.1573H85.4706Z" fill="#81818B"/>
<path d="M99.7543 27.8314C96.8505 27.8314 94.5673 27.1193 92.9046 25.6956C91.2424 24.2509 90.4108 22.2339 90.4108 19.6456C90.4108 17.0788 91.1474 15.0513 92.6206 13.563C94.1147 12.0747 96.2399 11.3306 98.9967 11.3306C100.806 11.3306 102.343 11.6757 103.606 12.3659C104.868 13.0561 105.825 14.0159 106.477 15.2454C107.13 16.4533 107.456 17.823 107.456 19.3544V21.328H94.9563C95.2928 23.3124 97.103 24.3048 100.386 24.3048C101.354 24.3048 102.354 24.2184 103.384 24.0456C104.415 23.8732 105.31 23.6359 106.067 23.334V26.7637C105.331 27.0868 104.384 27.346 103.227 27.5402C102.069 27.734 100.912 27.8314 99.7543 27.8314ZM102.943 18.1573C102.879 17.1219 102.501 16.3239 101.806 15.7631C101.111 15.1807 100.154 14.8895 98.9337 14.8895C97.7341 14.8895 96.7875 15.1807 96.0929 15.7631C95.3983 16.3455 95.0198 17.1435 94.9563 18.1573H102.943Z" fill="#81818B"/>
<path d="M108.514 11.8159H113.122V13.7248C113.817 12.9267 114.637 12.3336 115.585 11.9453C116.553 11.5355 117.563 11.3306 118.615 11.3306C120.678 11.3306 122.214 11.9021 123.223 13.0453C124.254 14.167 124.771 15.6876 124.771 17.6073V27.346H120.004V18.1573C120.004 16.1513 119.099 15.1484 117.289 15.1484C116.49 15.1484 115.743 15.3533 115.048 15.7631C114.353 16.1513 113.764 16.7337 113.28 17.5102V27.346H108.514V11.8159Z" fill="#81818B"/>
<path d="M128.975 9.422C128.239 9.422 127.619 9.17399 127.114 8.67787C126.608 8.18179 126.356 7.55626 126.356 6.80131C126.356 6.06799 126.608 5.45326 127.114 4.95714C127.619 4.43949 128.239 4.18066 128.975 4.18066C129.712 4.18066 130.333 4.43949 130.838 4.95714C131.343 5.45326 131.596 6.06799 131.596 6.80131C131.596 7.55626 131.343 8.18179 130.838 8.67787C130.333 9.17399 129.712 9.422 128.975 9.422ZM126.577 11.8162H131.375V27.3463H126.577V11.8162Z" fill="#81818B"/>
<path d="M139.504 27.8314C138.367 27.8314 137.147 27.7015 135.842 27.4429C134.559 27.2057 133.548 26.8606 132.812 26.4077V22.5898C133.653 23.1075 134.664 23.5281 135.842 23.8516C137.021 24.175 138.115 24.3368 139.125 24.3368C139.988 24.3368 140.619 24.2614 141.019 24.1105C141.418 23.9594 141.618 23.679 141.618 23.2693C141.618 22.9457 141.503 22.6869 141.271 22.4927C141.04 22.2771 140.682 22.0937 140.198 21.9428C139.735 21.7701 138.956 21.5221 137.862 21.1986C136.579 20.8103 135.568 20.4221 134.832 20.0339C134.117 19.624 133.57 19.1172 133.191 18.5132C132.833 17.9092 132.654 17.1327 132.654 16.1837C132.654 14.5659 133.274 13.3581 134.517 12.56C135.779 11.7404 137.483 11.3306 139.63 11.3306C140.682 11.3306 141.766 11.4492 142.881 11.6865C144.017 11.9021 144.891 12.1933 145.501 12.56V16.2807C144.891 15.8709 144.091 15.5366 143.102 15.2778C142.134 15.019 141.187 14.8895 140.261 14.8895C139.398 14.8895 138.725 14.9758 138.241 15.1484C137.778 15.3209 137.546 15.6444 137.546 16.119C137.546 16.5288 137.767 16.8415 138.209 17.0573C138.672 17.2729 139.525 17.5426 140.766 17.8661L141.398 18.0278C142.723 18.3945 143.754 18.8044 144.491 19.2574C145.227 19.6887 145.743 20.2171 146.038 20.8427C146.353 21.4466 146.511 22.2123 146.511 23.1398C146.511 24.5635 145.911 25.7065 144.712 26.5695C143.512 27.4104 141.776 27.8314 139.504 27.8314Z" fill="#81818B"/>
<path d="M147.613 3.43652H152.379V13.5957C153.095 12.8408 153.905 12.28 154.809 11.9133C155.715 11.525 156.683 11.3309 157.714 11.3309C159.776 11.3309 161.312 11.9025 162.322 13.0457C163.353 14.1673 163.869 15.688 163.869 17.6077V27.3464H159.103V18.1577C159.103 16.1517 158.198 15.1487 156.388 15.1487C155.588 15.1487 154.841 15.3537 154.147 15.7635C153.452 16.1517 152.863 16.7341 152.379 17.5106V27.3464H147.613V3.43652Z" fill="#81818B"/>
<path fill-rule="evenodd" clip-rule="evenodd" d="M24.6771 8.01421C24.6771 12.124 21.427 15.4556 17.4174 15.4556C13.4078 15.4556 10.1575 12.124 10.1575 8.01421C10.1575 3.9044 13.4078 0.572754 17.4174 0.572754C21.427 0.572754 24.6771 3.9044 24.6771 8.01421ZM0.530169 14.9148C8.43971 14.3683 15.3331 20.4383 15.9752 28.5628C16.0418 29.4045 16.0386 30.2356 15.9706 31.0504C8.06108 31.5969 1.16768 25.5268 0.525549 17.4024C0.459084 16.5606 0.462234 15.7293 0.530169 14.9148ZM21.0882 30.7659C29.0145 30.1075 34.9362 23.042 34.4033 14.9348C33.6085 14.8651 32.7979 14.8618 31.9762 14.93C24.05 15.5882 18.1282 22.6539 18.6613 30.7611C19.456 30.831 20.2669 30.8341 21.0882 30.7659Z" fill="#81818B"/>
</svg>
