<svg width="163" height="35" viewBox="0 0 163 35" fill="none" xmlns="http://www.w3.org/2000/svg">
<path fill-rule="evenodd" clip-rule="evenodd" d="M5.96212 8.62843C8.69943 5.12621 13.0828 2.85726 18.0232 2.85726C22.9927 2.85726 27.3984 5.15298 30.1325 8.69033C30.016 8.80415 29.9101 8.92211 29.8141 9.03992C29.3133 9.6568 28.9365 10.4513 28.6347 11.2583C28.0268 12.881 27.5631 15.0008 27.1338 16.9858L27.0956 17.1642C26.6673 19.1456 26.2691 20.9882 25.7877 22.3561C25.5714 22.9706 25.3663 23.4051 25.1845 23.6834C24.9947 23.4029 24.7793 22.9631 24.5514 22.3398C24.0366 20.9326 23.6035 19.0187 23.1445 16.975L23.1296 16.908C22.6884 14.9451 22.2205 12.8622 21.637 11.2679C21.3439 10.4671 20.9843 9.68042 20.5139 9.06927C20.0522 8.46951 19.2837 7.79263 18.1598 7.79263C17.0429 7.79263 16.2709 8.46216 15.8026 9.0552C15.3231 9.66242 14.9493 10.4458 14.6414 11.247C14.0212 12.8606 13.5142 14.9712 13.0423 16.9589L12.9936 17.1642C12.5263 19.1333 12.0895 20.9741 11.5937 22.3446C11.4044 22.868 11.2258 23.2662 11.0641 23.5507C10.9061 23.2675 10.732 22.872 10.5479 22.353C10.0722 21.0117 9.6555 19.2224 9.20796 17.3006L9.12962 16.9642C8.66593 14.9753 8.16285 12.8609 7.53386 11.2423C7.22136 10.4381 6.83911 9.65076 6.34448 9.04071C6.23246 8.90264 6.10518 8.76246 5.96212 8.62843ZM4.30543 11.3176C4.4358 11.5624 4.57372 11.8659 4.71631 12.2329C5.26077 13.6339 5.72199 15.5456 6.19696 17.5829L6.28941 17.9798C6.72185 19.8387 7.1717 21.7723 7.70157 23.2662C7.98339 24.0608 8.32374 24.839 8.76142 25.4438C9.17534 26.0158 9.91792 26.7546 11.0597 26.7546C12.1983 26.7546 12.9426 26.0194 13.3593 25.45C13.8008 24.8465 14.1467 24.0692 14.4342 23.2741C14.9853 21.7507 15.4546 19.7717 15.9038 17.8778L15.9724 17.5882C16.4563 15.5498 16.9222 13.6343 17.4626 12.2281C17.713 11.5767 17.9474 11.1229 18.1515 10.8413C18.3449 11.1204 18.5658 11.5671 18.8002 12.2073C19.3152 13.6145 19.7478 15.5285 20.2069 17.5721L20.222 17.6391C20.663 19.6021 21.131 21.6849 21.7144 23.279C22.0075 24.0802 22.3672 24.8668 22.8376 25.4778C23.2993 26.0778 24.0677 26.7546 25.1914 26.7546C26.3212 26.7546 27.0868 26.0716 27.543 25.4663C28.0063 24.8522 28.3547 24.063 28.6361 23.2631C29.177 21.7267 29.607 19.7332 30.0171 17.8367L30.0758 17.5614C30.5174 15.5202 30.9411 13.6137 31.4645 12.217C31.5778 11.9131 31.6895 11.654 31.7959 11.4364C32.5977 13.1844 33.0425 15.1146 33.0425 17.1436C33.0425 25.0336 26.3184 31.4301 18.0232 31.4301C9.72829 31.4301 3.00387 25.0336 3.00387 17.1436C3.00387 15.0686 3.46898 13.0968 4.30543 11.3176ZM18.0232 0C8.06929 0 0 7.67545 0 17.1436C0 26.6117 8.06929 34.2871 18.0232 34.2871C27.9775 34.2871 36.0463 26.6117 36.0463 17.1436C36.0463 7.67545 27.9775 0 18.0232 0ZM18.3666 10.6021C18.3666 10.6021 18.3631 10.6052 18.3561 10.609C18.3631 10.6037 18.3666 10.6021 18.3666 10.6021ZM17.9515 10.6041C17.9445 10.6 17.941 10.5969 17.941 10.5969C17.941 10.5969 17.9445 10.5985 17.9515 10.6041ZM24.963 23.9546C24.963 23.9546 24.9663 23.9515 24.9728 23.9475C24.9663 23.9528 24.963 23.9546 24.963 23.9546ZM25.3998 23.9431C25.4068 23.9471 25.4105 23.9502 25.4105 23.9502C25.4105 23.9502 25.4068 23.9484 25.3998 23.9431ZM10.7519 23.9803C10.7519 23.9803 10.7562 23.9758 10.7649 23.9701C10.7563 23.9776 10.7519 23.9803 10.7519 23.9803ZM11.3602 23.9727C11.3688 23.9785 11.3731 23.9829 11.3731 23.9829C11.3731 23.9829 11.3687 23.9807 11.3602 23.9727Z" fill="#81818B"/>
<path d="M45.9982 27.2934L41.6277 13.0728H45.4559L48.0482 23.3081L51.062 13.0728H55.3423L58.3567 23.3081L60.9788 13.0728H64.807L60.4061 27.2934H56.3974L53.2021 16.6566L50.0074 27.2934H45.9982Z" fill="#81818B"/>
<path d="M70.4241 27.6374C69.1382 27.6374 68.0831 27.4458 67.2592 27.0635C66.4359 26.6623 65.8228 26.1367 65.4206 25.4868C65.0189 24.8369 64.8181 24.1202 64.8181 23.3366C64.8181 22.0178 65.3603 20.9474 66.4453 20.1255C67.5304 19.3036 69.1587 18.8926 71.3287 18.8926H75.1266V18.5486C75.1266 17.5738 74.835 16.8571 74.2524 16.3983C73.6697 15.9396 72.946 15.7103 72.0823 15.7103C71.2983 15.7103 70.615 15.8918 70.0324 16.255C69.4497 16.599 69.0879 17.1151 68.9473 17.8032H65.1794C65.2801 16.7711 65.6419 15.8727 66.2644 15.1081C66.9079 14.3436 67.7317 13.7606 68.736 13.3593C69.7413 12.9388 70.8662 12.7285 72.1122 12.7285C74.2424 12.7285 75.92 13.235 77.1461 14.248C78.3717 15.2611 78.9847 16.6946 78.9847 18.5486V27.2932H75.6987L75.3374 24.9997C74.8953 25.7642 74.2723 26.3946 73.4689 26.8919C72.6849 27.3887 71.6701 27.6374 70.4241 27.6374ZM71.2983 24.7701C72.4038 24.7701 73.2575 24.4259 73.8601 23.7379C74.4831 23.05 74.8754 22.1992 75.0364 21.1863H71.7504C70.7256 21.1863 69.9925 21.3679 69.5499 21.731C69.1083 22.0749 68.887 22.5053 68.887 23.0212C68.887 23.5755 69.1083 24.0056 69.5499 24.3113C69.9925 24.617 70.5746 24.7701 71.2983 24.7701Z" fill="#81818B"/>
<path d="M85.058 27.2934L79.5726 13.0728H83.6111L87.409 23.8244L91.2068 13.0728H95.2459L89.7301 27.2934H85.058Z" fill="#81818B"/>
<path d="M103.002 27.6374C101.495 27.6374 100.159 27.3312 98.9929 26.7198C97.8276 26.1079 96.9136 25.2479 96.2502 24.1392C95.5868 23.0309 95.2559 21.7501 95.2559 20.2975C95.2559 18.8258 95.5774 17.5165 96.2198 16.3697C96.8832 15.2228 97.7873 14.3341 98.9331 13.7033C100.098 13.0534 101.464 12.7285 103.032 12.7285C104.499 12.7285 105.795 13.0343 106.921 13.646C108.045 14.2576 108.92 15.0986 109.543 16.1689C110.186 17.2202 110.508 18.3957 110.508 19.6954C110.508 19.9057 110.497 20.1255 110.477 20.3548C110.477 20.5843 110.467 20.8231 110.447 21.0716H99.0836C99.1639 22.1801 99.5661 23.05 100.289 23.6809C101.032 24.3113 101.927 24.6268 102.972 24.6268C103.755 24.6268 104.409 24.4644 104.931 24.1392C105.473 23.7954 105.875 23.3557 106.137 22.8203H110.055C109.774 23.7189 109.301 24.5409 108.639 25.2864C107.995 26.0124 107.192 26.5857 106.227 27.0065C105.283 27.4268 104.207 27.6374 103.002 27.6374ZM103.032 15.7103C102.088 15.7103 101.254 15.9683 100.53 16.4843C99.8068 16.9813 99.3448 17.7458 99.1434 18.778H106.589C106.528 17.8414 106.167 17.0959 105.504 16.5416C104.84 15.9874 104.017 15.7103 103.032 15.7103Z" fill="#81818B"/>
<path d="M112.547 27.2932V6.65039H116.405V27.2932H112.547Z" fill="#81818B"/>
<path d="M126.405 27.6374C124.898 27.6374 123.562 27.3312 122.396 26.7198C121.231 26.1079 120.317 25.2479 119.653 24.1392C118.99 23.0309 118.659 21.7501 118.659 20.2975C118.659 18.8258 118.981 17.5165 119.623 16.3697C120.286 15.2228 121.191 14.3341 122.336 13.7033C123.502 13.0534 124.868 12.7285 126.435 12.7285C127.902 12.7285 129.198 13.0343 130.324 13.646C131.449 14.2576 132.323 15.0986 132.946 16.1689C133.589 17.2202 133.911 18.3957 133.911 19.6954C133.911 19.9057 133.9 20.1255 133.88 20.3548C133.88 20.5843 133.87 20.8231 133.85 21.0716H122.487C122.567 22.1801 122.969 23.05 123.693 23.6809C124.436 24.3113 125.33 24.6268 126.375 24.6268C127.158 24.6268 127.812 24.4644 128.334 24.1392C128.877 23.7954 129.279 23.3557 129.54 22.8203H133.459C133.177 23.7189 132.705 24.5409 132.042 25.2864C131.398 26.0124 130.595 26.5857 129.63 27.0065C128.686 27.4268 127.611 27.6374 126.405 27.6374ZM126.435 15.7103C125.491 15.7103 124.657 15.9683 123.933 16.4843C123.21 16.9813 122.748 17.7458 122.547 18.778H129.992C129.932 17.8414 129.57 17.0959 128.907 16.5416C128.243 15.9874 127.42 15.7103 126.435 15.7103Z" fill="#81818B"/>
<path d="M142.129 27.6374C140.803 27.6374 139.637 27.4365 138.633 27.0352C137.627 26.6145 136.823 26.0412 136.221 25.3147C135.618 24.5887 135.257 23.7476 135.136 22.792H139.024C139.145 23.3459 139.467 23.8242 139.989 24.2254C140.531 24.6077 141.224 24.7988 142.068 24.7988C142.913 24.7988 143.526 24.6365 143.907 24.3113C144.309 23.9866 144.51 23.6136 144.51 23.1933C144.51 22.5815 144.229 22.1704 143.666 21.9603C143.103 21.731 142.319 21.5112 141.315 21.301C140.672 21.1672 140.019 21.0047 139.356 20.8136C138.693 20.6225 138.08 20.3835 137.517 20.0968C136.975 19.791 136.532 19.4087 136.191 18.95C135.849 18.4721 135.679 17.8892 135.679 17.2011C135.679 15.9396 136.201 14.8788 137.246 14.0187C138.311 13.1585 139.797 12.7285 141.707 12.7285C143.475 12.7285 144.882 13.1203 145.926 13.904C146.991 14.6877 147.624 15.7676 147.826 17.1438H144.178C143.957 16.0925 143.123 15.5669 141.677 15.5669C140.953 15.5669 140.391 15.7007 139.989 15.9683C139.607 16.2359 139.416 16.5703 139.416 16.9717C139.416 17.3923 139.707 17.7267 140.29 17.9752C140.873 18.2237 141.647 18.453 142.611 18.6633C143.656 18.8926 144.61 19.1507 145.474 19.4374C146.358 19.705 147.062 20.116 147.585 20.6702C148.107 21.2054 148.368 21.9793 148.368 22.9924C148.389 23.872 148.147 24.6648 147.645 25.3722C147.142 26.0792 146.419 26.6335 145.474 27.0352C144.53 27.4365 143.415 27.6374 142.129 27.6374Z" fill="#81818B"/>
<path d="M156.759 27.6374C155.433 27.6374 154.267 27.4365 153.263 27.0352C152.258 26.6145 151.454 26.0412 150.852 25.3147C150.249 24.5887 149.887 23.7476 149.767 22.792H153.655C153.775 23.3459 154.097 23.8242 154.619 24.2254C155.162 24.6077 155.855 24.7988 156.699 24.7988C157.543 24.7988 158.156 24.6365 158.538 24.3113C158.939 23.9866 159.141 23.6136 159.141 23.1933C159.141 22.5815 158.859 22.1704 158.296 21.9603C157.734 21.731 156.95 21.5112 155.945 21.301C155.302 21.1672 154.65 21.0047 153.986 20.8136C153.323 20.6225 152.71 20.3835 152.148 20.0968C151.605 19.791 151.163 19.4087 150.821 18.95C150.479 18.4721 150.309 17.8892 150.309 17.2011C150.309 15.9396 150.832 14.8788 151.876 14.0187C152.942 13.1585 154.428 12.7285 156.337 12.7285C158.105 12.7285 159.512 13.1203 160.557 13.904C161.622 14.6877 162.255 15.7676 162.456 17.1438H158.809C158.588 16.0925 157.754 15.5669 156.307 15.5669C155.584 15.5669 155.021 15.7007 154.619 15.9683C154.237 16.2359 154.046 16.5703 154.046 16.9717C154.046 17.3923 154.338 17.7267 154.921 17.9752C155.503 18.2237 156.277 18.453 157.241 18.6633C158.286 18.8926 159.241 19.1507 160.105 19.4374C160.989 19.705 161.693 20.116 162.215 20.6702C162.737 21.2054 162.999 21.9793 162.999 22.9924C163.019 23.872 162.778 24.6648 162.275 25.3722C161.773 26.0792 161.05 26.6335 160.105 27.0352C159.161 27.4365 158.045 27.6374 156.759 27.6374Z" fill="#81818B"/>
</svg>
